<mxfile host="app.diagrams.net" agent="Mozilla/5.0 (X11; Linux x86_64; rv:128.0) Gecko/20100101 Firefox/128.0" version="26.0.16">
  <diagram name="Page-1" id="WCt1WBiGlqQxyIs_JkD0">
    <mxGraphModel dx="3323" dy="2331" grid="0" gridSize="10" guides="1" tooltips="1" connect="1" arrows="1" fold="1" page="0" pageScale="1" pageWidth="850" pageHeight="1100" math="0" shadow="0">
      <root>
        <mxCell id="0" />
        <mxCell id="1" parent="0" />
        <mxCell id="cK0v4nelZO162dnOuFe5-4" style="edgeStyle=none;curved=1;rounded=0;orthogonalLoop=1;jettySize=auto;html=1;entryX=0.5;entryY=0;entryDx=0;entryDy=0;fontSize=12;startSize=8;endSize=8;" edge="1" parent="1" source="cK0v4nelZO162dnOuFe5-2" target="cK0v4nelZO162dnOuFe5-3">
          <mxGeometry relative="1" as="geometry" />
        </mxCell>
        <mxCell id="cK0v4nelZO162dnOuFe5-2" value="void desencriptar(const char* orig, char* dest)" style="shape=step;perimeter=stepPerimeter;whiteSpace=wrap;html=1;fixedSize=1;" vertex="1" parent="1">
          <mxGeometry x="-896" y="-110" width="313" height="45" as="geometry" />
        </mxCell>
        <mxCell id="cK0v4nelZO162dnOuFe5-7" style="edgeStyle=none;curved=1;rounded=0;orthogonalLoop=1;jettySize=auto;html=1;entryX=0.5;entryY=0;entryDx=0;entryDy=0;fontSize=12;startSize=8;endSize=8;" edge="1" parent="1" source="cK0v4nelZO162dnOuFe5-3" target="cK0v4nelZO162dnOuFe5-6">
          <mxGeometry relative="1" as="geometry" />
        </mxCell>
        <mxCell id="cK0v4nelZO162dnOuFe5-3" value="&lt;div&gt;Pila_D* pila_salto =&amp;nbsp; pila_d_crear();&lt;/div&gt;&lt;div&gt;size_t contador_parentesis;&lt;/div&gt;&lt;div&gt;dir = ADELANTE;&lt;br&gt;&lt;/div&gt;" style="rounded=0;whiteSpace=wrap;html=1;" vertex="1" parent="1">
          <mxGeometry x="-848" y="-29" width="217" height="56" as="geometry" />
        </mxCell>
        <mxCell id="cK0v4nelZO162dnOuFe5-62" style="edgeStyle=orthogonalEdgeStyle;shape=connector;rounded=0;orthogonalLoop=1;jettySize=auto;html=1;entryX=0.5;entryY=0;entryDx=0;entryDy=0;strokeColor=default;align=center;verticalAlign=middle;fontFamily=Helvetica;fontSize=12;fontColor=default;labelBackgroundColor=default;startSize=8;endArrow=classic;endSize=8;" edge="1" parent="1" source="cK0v4nelZO162dnOuFe5-5" target="cK0v4nelZO162dnOuFe5-10">
          <mxGeometry relative="1" as="geometry" />
        </mxCell>
        <mxCell id="cK0v4nelZO162dnOuFe5-158" style="edgeStyle=orthogonalEdgeStyle;shape=connector;rounded=0;orthogonalLoop=1;jettySize=auto;html=1;strokeColor=default;align=center;verticalAlign=middle;fontFamily=Helvetica;fontSize=12;fontColor=default;labelBackgroundColor=default;startSize=8;endArrow=classic;endSize=8;entryX=0;entryY=0.5;entryDx=0;entryDy=0;" edge="1" parent="1" source="cK0v4nelZO162dnOuFe5-5" target="cK0v4nelZO162dnOuFe5-160">
          <mxGeometry relative="1" as="geometry">
            <mxPoint x="-618" y="129" as="targetPoint" />
          </mxGeometry>
        </mxCell>
        <mxCell id="cK0v4nelZO162dnOuFe5-5" value="*orig!=&#39;\0&#39;" style="rhombus;whiteSpace=wrap;html=1;" vertex="1" parent="1">
          <mxGeometry x="-798.5" y="106" width="118" height="46" as="geometry" />
        </mxCell>
        <mxCell id="cK0v4nelZO162dnOuFe5-9" style="edgeStyle=none;curved=1;rounded=0;orthogonalLoop=1;jettySize=auto;html=1;entryX=0.5;entryY=0;entryDx=0;entryDy=0;fontSize=12;startSize=8;endSize=8;" edge="1" parent="1" source="cK0v4nelZO162dnOuFe5-6" target="cK0v4nelZO162dnOuFe5-5">
          <mxGeometry relative="1" as="geometry" />
        </mxCell>
        <mxCell id="cK0v4nelZO162dnOuFe5-6" value="" style="ellipse;whiteSpace=wrap;html=1;aspect=fixed;" vertex="1" parent="1">
          <mxGeometry x="-749" y="57" width="19" height="19" as="geometry" />
        </mxCell>
        <mxCell id="cK0v4nelZO162dnOuFe5-60" style="edgeStyle=orthogonalEdgeStyle;shape=connector;rounded=0;orthogonalLoop=1;jettySize=auto;html=1;entryX=0.5;entryY=0;entryDx=0;entryDy=0;strokeColor=default;align=center;verticalAlign=middle;fontFamily=Helvetica;fontSize=12;fontColor=default;labelBackgroundColor=default;startSize=8;endArrow=classic;endSize=8;" edge="1" parent="1" source="cK0v4nelZO162dnOuFe5-10" target="cK0v4nelZO162dnOuFe5-12">
          <mxGeometry relative="1" as="geometry" />
        </mxCell>
        <mxCell id="cK0v4nelZO162dnOuFe5-104" style="edgeStyle=orthogonalEdgeStyle;shape=connector;rounded=0;orthogonalLoop=1;jettySize=auto;html=1;entryX=0;entryY=0.5;entryDx=0;entryDy=0;strokeColor=default;align=center;verticalAlign=middle;fontFamily=Helvetica;fontSize=12;fontColor=default;labelBackgroundColor=default;startSize=8;endArrow=classic;endSize=8;" edge="1" parent="1" source="cK0v4nelZO162dnOuFe5-10" target="cK0v4nelZO162dnOuFe5-107">
          <mxGeometry relative="1" as="geometry">
            <mxPoint x="-252" y="216.5" as="targetPoint" />
          </mxGeometry>
        </mxCell>
        <mxCell id="cK0v4nelZO162dnOuFe5-10" value="*orig==&#39;(&#39;" style="rhombus;whiteSpace=wrap;html=1;" vertex="1" parent="1">
          <mxGeometry x="-802" y="194" width="126" height="45" as="geometry" />
        </mxCell>
        <mxCell id="cK0v4nelZO162dnOuFe5-47" style="edgeStyle=orthogonalEdgeStyle;shape=connector;rounded=0;orthogonalLoop=1;jettySize=auto;html=1;entryX=0.5;entryY=0;entryDx=0;entryDy=0;strokeColor=default;align=center;verticalAlign=middle;fontFamily=Helvetica;fontSize=12;fontColor=default;labelBackgroundColor=default;startSize=8;endArrow=classic;endSize=8;" edge="1" parent="1" source="cK0v4nelZO162dnOuFe5-12" target="cK0v4nelZO162dnOuFe5-13">
          <mxGeometry relative="1" as="geometry" />
        </mxCell>
        <mxCell id="cK0v4nelZO162dnOuFe5-49" style="edgeStyle=orthogonalEdgeStyle;shape=connector;rounded=0;orthogonalLoop=1;jettySize=auto;html=1;strokeColor=default;align=center;verticalAlign=middle;fontFamily=Helvetica;fontSize=12;fontColor=default;labelBackgroundColor=default;startSize=8;endArrow=classic;endSize=8;entryX=1;entryY=0.5;entryDx=0;entryDy=0;" edge="1" parent="1" source="cK0v4nelZO162dnOuFe5-12" target="cK0v4nelZO162dnOuFe5-52">
          <mxGeometry relative="1" as="geometry">
            <mxPoint x="-592.8947368421052" y="312.5" as="targetPoint" />
          </mxGeometry>
        </mxCell>
        <mxCell id="cK0v4nelZO162dnOuFe5-12" value="dir==ADELANTE" style="rhombus;whiteSpace=wrap;html=1;" vertex="1" parent="1">
          <mxGeometry x="-820" y="286" width="162" height="53" as="geometry" />
        </mxCell>
        <mxCell id="cK0v4nelZO162dnOuFe5-48" style="edgeStyle=orthogonalEdgeStyle;shape=connector;rounded=0;orthogonalLoop=1;jettySize=auto;html=1;strokeColor=default;align=center;verticalAlign=middle;fontFamily=Helvetica;fontSize=12;fontColor=default;labelBackgroundColor=default;startSize=8;endArrow=classic;endSize=8;" edge="1" parent="1" source="cK0v4nelZO162dnOuFe5-13">
          <mxGeometry relative="1" as="geometry">
            <mxPoint x="-739" y="418.63636363636374" as="targetPoint" />
          </mxGeometry>
        </mxCell>
        <mxCell id="cK0v4nelZO162dnOuFe5-13" value="&lt;div&gt;contador_parentesis=1;&lt;/div&gt;&lt;div&gt;&lt;br&gt;&lt;/div&gt;" style="rounded=0;whiteSpace=wrap;html=1;" vertex="1" parent="1">
          <mxGeometry x="-822" y="364" width="166" height="27" as="geometry" />
        </mxCell>
        <mxCell id="cK0v4nelZO162dnOuFe5-21" style="edgeStyle=none;curved=1;rounded=0;orthogonalLoop=1;jettySize=auto;html=1;fontSize=12;startSize=8;endSize=8;" edge="1" parent="1" source="cK0v4nelZO162dnOuFe5-14" target="cK0v4nelZO162dnOuFe5-16">
          <mxGeometry relative="1" as="geometry" />
        </mxCell>
        <mxCell id="cK0v4nelZO162dnOuFe5-44" style="edgeStyle=orthogonalEdgeStyle;shape=connector;rounded=0;orthogonalLoop=1;jettySize=auto;html=1;strokeColor=default;align=center;verticalAlign=middle;fontFamily=Helvetica;fontSize=12;fontColor=default;labelBackgroundColor=default;startSize=8;endArrow=classic;endSize=8;" edge="1" parent="1" source="cK0v4nelZO162dnOuFe5-14" target="cK0v4nelZO162dnOuFe5-45">
          <mxGeometry relative="1" as="geometry">
            <mxPoint x="-485.25" y="978.75" as="targetPoint" />
            <Array as="points">
              <mxPoint x="-520" y="497" />
              <mxPoint x="-520" y="958" />
            </Array>
          </mxGeometry>
        </mxCell>
        <mxCell id="cK0v4nelZO162dnOuFe5-14" value="contador_parentesis!=0 &amp;amp;&amp;amp; *orig!=&#39;\0&#39;" style="rhombus;whiteSpace=wrap;html=1;" vertex="1" parent="1">
          <mxGeometry x="-880.5" y="463" width="283" height="68" as="geometry" />
        </mxCell>
        <mxCell id="cK0v4nelZO162dnOuFe5-23" style="edgeStyle=none;curved=1;rounded=0;orthogonalLoop=1;jettySize=auto;html=1;entryX=0.5;entryY=0;entryDx=0;entryDy=0;fontSize=12;startSize=8;endSize=8;" edge="1" parent="1" source="cK0v4nelZO162dnOuFe5-15" target="cK0v4nelZO162dnOuFe5-18">
          <mxGeometry relative="1" as="geometry" />
        </mxCell>
        <mxCell id="cK0v4nelZO162dnOuFe5-31" style="edgeStyle=orthogonalEdgeStyle;shape=connector;rounded=0;orthogonalLoop=1;jettySize=auto;html=1;entryX=0;entryY=0.5;entryDx=0;entryDy=0;strokeColor=default;align=center;verticalAlign=middle;fontFamily=Helvetica;fontSize=12;fontColor=default;labelBackgroundColor=default;startSize=8;endArrow=classic;endSize=8;" edge="1" parent="1" source="cK0v4nelZO162dnOuFe5-15" target="cK0v4nelZO162dnOuFe5-17">
          <mxGeometry relative="1" as="geometry" />
        </mxCell>
        <mxCell id="cK0v4nelZO162dnOuFe5-15" value="*orig==&#39;(&#39;" style="rhombus;whiteSpace=wrap;html=1;" vertex="1" parent="1">
          <mxGeometry x="-935.25" y="656" width="80" height="80" as="geometry" />
        </mxCell>
        <mxCell id="cK0v4nelZO162dnOuFe5-22" style="edgeStyle=orthogonalEdgeStyle;rounded=0;orthogonalLoop=1;jettySize=auto;html=1;entryX=0.5;entryY=0;entryDx=0;entryDy=0;fontSize=12;startSize=8;endSize=8;exitX=0.5;exitY=1;exitDx=0;exitDy=0;" edge="1" parent="1" source="cK0v4nelZO162dnOuFe5-16" target="cK0v4nelZO162dnOuFe5-15">
          <mxGeometry relative="1" as="geometry">
            <Array as="points">
              <mxPoint x="-739" y="634" />
              <mxPoint x="-895" y="634" />
            </Array>
          </mxGeometry>
        </mxCell>
        <mxCell id="cK0v4nelZO162dnOuFe5-16" value="avanzar(orig, dir);" style="rounded=0;whiteSpace=wrap;html=1;" vertex="1" parent="1">
          <mxGeometry x="-800.75" y="572" width="123.5" height="32" as="geometry" />
        </mxCell>
        <mxCell id="cK0v4nelZO162dnOuFe5-26" style="edgeStyle=orthogonalEdgeStyle;rounded=0;orthogonalLoop=1;jettySize=auto;html=1;entryX=0.5;entryY=0;entryDx=0;entryDy=0;fontSize=12;startSize=8;endSize=8;" edge="1" parent="1" source="cK0v4nelZO162dnOuFe5-17" target="cK0v4nelZO162dnOuFe5-19">
          <mxGeometry relative="1" as="geometry" />
        </mxCell>
        <mxCell id="cK0v4nelZO162dnOuFe5-38" style="edgeStyle=orthogonalEdgeStyle;shape=connector;rounded=0;orthogonalLoop=1;jettySize=auto;html=1;entryX=1;entryY=0.5;entryDx=0;entryDy=0;strokeColor=default;align=center;verticalAlign=middle;fontFamily=Helvetica;fontSize=12;fontColor=default;labelBackgroundColor=default;startSize=8;endArrow=classic;endSize=8;" edge="1" parent="1" source="cK0v4nelZO162dnOuFe5-17" target="cK0v4nelZO162dnOuFe5-24">
          <mxGeometry relative="1" as="geometry">
            <Array as="points">
              <mxPoint x="-566" y="696" />
              <mxPoint x="-566" y="839" />
            </Array>
          </mxGeometry>
        </mxCell>
        <mxCell id="cK0v4nelZO162dnOuFe5-17" value="*orig==&#39;)&#39;" style="rhombus;whiteSpace=wrap;html=1;" vertex="1" parent="1">
          <mxGeometry x="-699.25" y="656" width="80" height="80" as="geometry" />
        </mxCell>
        <mxCell id="cK0v4nelZO162dnOuFe5-30" style="edgeStyle=orthogonalEdgeStyle;shape=connector;rounded=0;orthogonalLoop=1;jettySize=auto;html=1;entryX=0;entryY=0.5;entryDx=0;entryDy=0;strokeColor=default;align=center;verticalAlign=middle;fontFamily=Helvetica;fontSize=12;fontColor=default;labelBackgroundColor=default;startSize=8;endArrow=classic;endSize=8;exitX=0.5;exitY=1;exitDx=0;exitDy=0;" edge="1" parent="1" source="cK0v4nelZO162dnOuFe5-18" target="cK0v4nelZO162dnOuFe5-24">
          <mxGeometry relative="1" as="geometry" />
        </mxCell>
        <mxCell id="cK0v4nelZO162dnOuFe5-18" value="++contador_parentesis;" style="rounded=0;whiteSpace=wrap;html=1;" vertex="1" parent="1">
          <mxGeometry x="-969" y="771" width="147.5" height="32" as="geometry" />
        </mxCell>
        <mxCell id="cK0v4nelZO162dnOuFe5-35" style="edgeStyle=orthogonalEdgeStyle;shape=connector;rounded=0;orthogonalLoop=1;jettySize=auto;html=1;entryX=0.5;entryY=0;entryDx=0;entryDy=0;strokeColor=default;align=center;verticalAlign=middle;fontFamily=Helvetica;fontSize=12;fontColor=default;labelBackgroundColor=default;startSize=8;endArrow=classic;endSize=8;" edge="1" parent="1" source="cK0v4nelZO162dnOuFe5-19" target="cK0v4nelZO162dnOuFe5-24">
          <mxGeometry relative="1" as="geometry" />
        </mxCell>
        <mxCell id="cK0v4nelZO162dnOuFe5-19" value="--contador_parentesis;" style="rounded=0;whiteSpace=wrap;html=1;" vertex="1" parent="1">
          <mxGeometry x="-733" y="766" width="147.5" height="32" as="geometry" />
        </mxCell>
        <mxCell id="cK0v4nelZO162dnOuFe5-41" style="edgeStyle=orthogonalEdgeStyle;shape=connector;rounded=0;orthogonalLoop=1;jettySize=auto;html=1;entryX=0.5;entryY=0;entryDx=0;entryDy=0;strokeColor=default;align=center;verticalAlign=middle;fontFamily=Helvetica;fontSize=12;fontColor=default;labelBackgroundColor=default;startSize=8;endArrow=classic;endSize=8;" edge="1" parent="1" source="cK0v4nelZO162dnOuFe5-20" target="cK0v4nelZO162dnOuFe5-14">
          <mxGeometry relative="1" as="geometry" />
        </mxCell>
        <mxCell id="cK0v4nelZO162dnOuFe5-20" value="" style="ellipse;whiteSpace=wrap;html=1;aspect=fixed;" vertex="1" parent="1">
          <mxGeometry x="-748.5" y="419" width="19" height="19" as="geometry" />
        </mxCell>
        <mxCell id="cK0v4nelZO162dnOuFe5-39" style="edgeStyle=orthogonalEdgeStyle;shape=connector;rounded=0;orthogonalLoop=1;jettySize=auto;html=1;entryX=0;entryY=0.5;entryDx=0;entryDy=0;strokeColor=default;align=center;verticalAlign=middle;fontFamily=Helvetica;fontSize=12;fontColor=default;labelBackgroundColor=default;startSize=8;endArrow=classic;endSize=8;" edge="1" parent="1" source="cK0v4nelZO162dnOuFe5-24" target="cK0v4nelZO162dnOuFe5-20">
          <mxGeometry relative="1" as="geometry">
            <Array as="points">
              <mxPoint x="-754" y="880" />
              <mxPoint x="-993" y="880" />
              <mxPoint x="-993" y="429" />
              <mxPoint x="-749" y="429" />
            </Array>
          </mxGeometry>
        </mxCell>
        <mxCell id="cK0v4nelZO162dnOuFe5-24" value="" style="ellipse;whiteSpace=wrap;html=1;aspect=fixed;" vertex="1" parent="1">
          <mxGeometry x="-763.75" y="830" width="19" height="19" as="geometry" />
        </mxCell>
        <mxCell id="cK0v4nelZO162dnOuFe5-32" value="V" style="text;html=1;align=center;verticalAlign=middle;whiteSpace=wrap;rounded=0;fontFamily=Helvetica;fontSize=12;fontColor=default;labelBackgroundColor=default;" vertex="1" parent="1">
          <mxGeometry x="-941" y="732" width="60" height="30" as="geometry" />
        </mxCell>
        <mxCell id="cK0v4nelZO162dnOuFe5-33" value="F" style="text;html=1;align=center;verticalAlign=middle;whiteSpace=wrap;rounded=0;fontFamily=Helvetica;fontSize=12;fontColor=default;labelBackgroundColor=default;" vertex="1" parent="1">
          <mxGeometry x="-816.75" y="667" width="60" height="30" as="geometry" />
        </mxCell>
        <mxCell id="cK0v4nelZO162dnOuFe5-34" value="V" style="text;html=1;align=center;verticalAlign=middle;whiteSpace=wrap;rounded=0;fontFamily=Helvetica;fontSize=12;fontColor=default;labelBackgroundColor=default;" vertex="1" parent="1">
          <mxGeometry x="-704" y="736" width="60" height="30" as="geometry" />
        </mxCell>
        <mxCell id="cK0v4nelZO162dnOuFe5-37" value="F" style="text;html=1;align=center;verticalAlign=middle;whiteSpace=wrap;rounded=0;fontFamily=Helvetica;fontSize=12;fontColor=default;labelBackgroundColor=default;" vertex="1" parent="1">
          <mxGeometry x="-628" y="667" width="60" height="30" as="geometry" />
        </mxCell>
        <mxCell id="cK0v4nelZO162dnOuFe5-42" value="V" style="text;html=1;align=center;verticalAlign=middle;whiteSpace=wrap;rounded=0;fontFamily=Helvetica;fontSize=12;fontColor=default;labelBackgroundColor=default;" vertex="1" parent="1">
          <mxGeometry x="-784.25" y="531" width="60" height="30" as="geometry" />
        </mxCell>
        <mxCell id="cK0v4nelZO162dnOuFe5-54" style="edgeStyle=orthogonalEdgeStyle;shape=connector;rounded=0;orthogonalLoop=1;jettySize=auto;html=1;strokeColor=default;align=center;verticalAlign=middle;fontFamily=Helvetica;fontSize=12;fontColor=default;labelBackgroundColor=default;startSize=8;endArrow=classic;endSize=8;entryX=0.5;entryY=0;entryDx=0;entryDy=0;" edge="1" parent="1" source="cK0v4nelZO162dnOuFe5-45" target="cK0v4nelZO162dnOuFe5-53">
          <mxGeometry relative="1" as="geometry">
            <mxPoint x="-754.255" y="1064.826086956522" as="targetPoint" />
          </mxGeometry>
        </mxCell>
        <mxCell id="cK0v4nelZO162dnOuFe5-45" value="&lt;div&gt;pila_d_insertar(pila_salto, orig+dir);&lt;/div&gt;&lt;div&gt;voltear(dir);&lt;/div&gt;&lt;div&gt;avanzar(orig, dir);&lt;br&gt;&lt;/div&gt;" style="rounded=0;whiteSpace=wrap;html=1;fontFamily=Helvetica;fontSize=12;fontColor=default;labelBackgroundColor=default;" vertex="1" parent="1">
          <mxGeometry x="-859.38" y="928" width="210.25" height="60" as="geometry" />
        </mxCell>
        <mxCell id="cK0v4nelZO162dnOuFe5-46" value="F" style="text;html=1;align=center;verticalAlign=middle;whiteSpace=wrap;rounded=0;fontFamily=Helvetica;fontSize=12;fontColor=default;labelBackgroundColor=default;" vertex="1" parent="1">
          <mxGeometry x="-610" y="468" width="60" height="30" as="geometry" />
        </mxCell>
        <mxCell id="cK0v4nelZO162dnOuFe5-50" value="V" style="text;html=1;align=center;verticalAlign=middle;whiteSpace=wrap;rounded=0;fontFamily=Helvetica;fontSize=12;fontColor=default;labelBackgroundColor=default;" vertex="1" parent="1">
          <mxGeometry x="-784.25" y="329" width="60" height="30" as="geometry" />
        </mxCell>
        <mxCell id="cK0v4nelZO162dnOuFe5-51" value="F" style="text;html=1;align=center;verticalAlign=middle;whiteSpace=wrap;rounded=0;fontFamily=Helvetica;fontSize=12;fontColor=default;labelBackgroundColor=default;" vertex="1" parent="1">
          <mxGeometry x="-865" y="280" width="60" height="30" as="geometry" />
        </mxCell>
        <mxCell id="cK0v4nelZO162dnOuFe5-151" style="edgeStyle=orthogonalEdgeStyle;shape=connector;rounded=0;orthogonalLoop=1;jettySize=auto;html=1;entryX=0;entryY=0.5;entryDx=0;entryDy=0;strokeColor=default;align=center;verticalAlign=middle;fontFamily=Helvetica;fontSize=12;fontColor=default;labelBackgroundColor=default;startSize=8;endArrow=classic;endSize=8;" edge="1" parent="1" source="cK0v4nelZO162dnOuFe5-52" target="cK0v4nelZO162dnOuFe5-53">
          <mxGeometry relative="1" as="geometry">
            <Array as="points">
              <mxPoint x="-1019" y="1034" />
            </Array>
          </mxGeometry>
        </mxCell>
        <mxCell id="cK0v4nelZO162dnOuFe5-52" value="&lt;div&gt;voltear(dir);&lt;/div&gt;&lt;div&gt;orig=pila_d_pop(pila_salto)&lt;br&gt;&lt;/div&gt;" style="rounded=0;whiteSpace=wrap;html=1;fontFamily=Helvetica;fontSize=12;fontColor=default;labelBackgroundColor=default;" vertex="1" parent="1">
          <mxGeometry x="-1114" y="290.5" width="189" height="44" as="geometry" />
        </mxCell>
        <mxCell id="cK0v4nelZO162dnOuFe5-153" style="edgeStyle=orthogonalEdgeStyle;shape=connector;rounded=0;orthogonalLoop=1;jettySize=auto;html=1;entryX=0;entryY=0.5;entryDx=0;entryDy=0;strokeColor=default;align=center;verticalAlign=middle;fontFamily=Helvetica;fontSize=12;fontColor=default;labelBackgroundColor=default;startSize=8;endArrow=classic;endSize=8;" edge="1" parent="1" source="cK0v4nelZO162dnOuFe5-53" target="cK0v4nelZO162dnOuFe5-149">
          <mxGeometry relative="1" as="geometry">
            <Array as="points">
              <mxPoint x="-755" y="1140" />
            </Array>
          </mxGeometry>
        </mxCell>
        <mxCell id="cK0v4nelZO162dnOuFe5-53" value="" style="ellipse;whiteSpace=wrap;html=1;aspect=fixed;" vertex="1" parent="1">
          <mxGeometry x="-764" y="1024" width="19" height="19" as="geometry" />
        </mxCell>
        <mxCell id="cK0v4nelZO162dnOuFe5-61" value="V" style="text;html=1;align=center;verticalAlign=middle;whiteSpace=wrap;rounded=0;fontFamily=Helvetica;fontSize=12;fontColor=default;labelBackgroundColor=default;" vertex="1" parent="1">
          <mxGeometry x="-781" y="236" width="62" height="30" as="geometry" />
        </mxCell>
        <mxCell id="cK0v4nelZO162dnOuFe5-63" value="V" style="text;html=1;align=center;verticalAlign=middle;whiteSpace=wrap;rounded=0;fontFamily=Helvetica;fontSize=12;fontColor=default;labelBackgroundColor=default;" vertex="1" parent="1">
          <mxGeometry x="-781" y="147" width="62" height="30" as="geometry" />
        </mxCell>
        <mxCell id="cK0v4nelZO162dnOuFe5-105" value="F" style="text;html=1;align=center;verticalAlign=middle;whiteSpace=wrap;rounded=0;fontFamily=Helvetica;fontSize=12;fontColor=default;labelBackgroundColor=default;" vertex="1" parent="1">
          <mxGeometry x="-686" y="184" width="60" height="30" as="geometry" />
        </mxCell>
        <mxCell id="cK0v4nelZO162dnOuFe5-106" style="edgeStyle=orthogonalEdgeStyle;shape=connector;rounded=0;orthogonalLoop=1;jettySize=auto;html=1;entryX=0.5;entryY=0;entryDx=0;entryDy=0;strokeColor=default;align=center;verticalAlign=middle;fontFamily=Helvetica;fontSize=12;fontColor=default;labelBackgroundColor=default;startSize=8;endArrow=classic;endSize=8;" edge="1" parent="1" source="cK0v4nelZO162dnOuFe5-107" target="cK0v4nelZO162dnOuFe5-110">
          <mxGeometry relative="1" as="geometry" />
        </mxCell>
        <mxCell id="cK0v4nelZO162dnOuFe5-148" style="edgeStyle=orthogonalEdgeStyle;shape=connector;rounded=0;orthogonalLoop=1;jettySize=auto;html=1;entryX=0;entryY=0.5;entryDx=0;entryDy=0;strokeColor=default;align=center;verticalAlign=middle;fontFamily=Helvetica;fontSize=12;fontColor=default;labelBackgroundColor=default;startSize=8;endArrow=classic;endSize=8;" edge="1" parent="1" source="cK0v4nelZO162dnOuFe5-107" target="cK0v4nelZO162dnOuFe5-147">
          <mxGeometry relative="1" as="geometry" />
        </mxCell>
        <mxCell id="cK0v4nelZO162dnOuFe5-107" value="*orig==&#39;(&#39;" style="rhombus;whiteSpace=wrap;html=1;" vertex="1" parent="1">
          <mxGeometry x="-262" y="194" width="126" height="45" as="geometry" />
        </mxCell>
        <mxCell id="cK0v4nelZO162dnOuFe5-108" style="edgeStyle=orthogonalEdgeStyle;shape=connector;rounded=0;orthogonalLoop=1;jettySize=auto;html=1;entryX=0.5;entryY=0;entryDx=0;entryDy=0;strokeColor=default;align=center;verticalAlign=middle;fontFamily=Helvetica;fontSize=12;fontColor=default;labelBackgroundColor=default;startSize=8;endArrow=classic;endSize=8;" edge="1" parent="1" source="cK0v4nelZO162dnOuFe5-110" target="cK0v4nelZO162dnOuFe5-112">
          <mxGeometry relative="1" as="geometry" />
        </mxCell>
        <mxCell id="cK0v4nelZO162dnOuFe5-109" style="edgeStyle=orthogonalEdgeStyle;shape=connector;rounded=0;orthogonalLoop=1;jettySize=auto;html=1;strokeColor=default;align=center;verticalAlign=middle;fontFamily=Helvetica;fontSize=12;fontColor=default;labelBackgroundColor=default;startSize=8;endArrow=classic;endSize=8;entryX=1;entryY=0.5;entryDx=0;entryDy=0;" edge="1" parent="1" source="cK0v4nelZO162dnOuFe5-110" target="cK0v4nelZO162dnOuFe5-143">
          <mxGeometry relative="1" as="geometry">
            <mxPoint x="-52.8947368421052" y="312.5" as="targetPoint" />
          </mxGeometry>
        </mxCell>
        <mxCell id="cK0v4nelZO162dnOuFe5-110" value="dir==ATRAS" style="rhombus;whiteSpace=wrap;html=1;" vertex="1" parent="1">
          <mxGeometry x="-280" y="286" width="162" height="53" as="geometry" />
        </mxCell>
        <mxCell id="cK0v4nelZO162dnOuFe5-111" style="edgeStyle=orthogonalEdgeStyle;shape=connector;rounded=0;orthogonalLoop=1;jettySize=auto;html=1;strokeColor=default;align=center;verticalAlign=middle;fontFamily=Helvetica;fontSize=12;fontColor=default;labelBackgroundColor=default;startSize=8;endArrow=classic;endSize=8;" edge="1" parent="1" source="cK0v4nelZO162dnOuFe5-112">
          <mxGeometry relative="1" as="geometry">
            <mxPoint x="-199" y="418.63636363636374" as="targetPoint" />
          </mxGeometry>
        </mxCell>
        <mxCell id="cK0v4nelZO162dnOuFe5-112" value="&lt;div&gt;contador_parentesis=1;&lt;/div&gt;&lt;div&gt;&lt;br&gt;&lt;/div&gt;" style="rounded=0;whiteSpace=wrap;html=1;" vertex="1" parent="1">
          <mxGeometry x="-282" y="364" width="166" height="27" as="geometry" />
        </mxCell>
        <mxCell id="cK0v4nelZO162dnOuFe5-113" style="edgeStyle=none;curved=1;rounded=0;orthogonalLoop=1;jettySize=auto;html=1;fontSize=12;startSize=8;endSize=8;" edge="1" parent="1" source="cK0v4nelZO162dnOuFe5-115" target="cK0v4nelZO162dnOuFe5-120">
          <mxGeometry relative="1" as="geometry" />
        </mxCell>
        <mxCell id="cK0v4nelZO162dnOuFe5-114" style="edgeStyle=orthogonalEdgeStyle;shape=connector;rounded=0;orthogonalLoop=1;jettySize=auto;html=1;strokeColor=default;align=center;verticalAlign=middle;fontFamily=Helvetica;fontSize=12;fontColor=default;labelBackgroundColor=default;startSize=8;endArrow=classic;endSize=8;" edge="1" parent="1" source="cK0v4nelZO162dnOuFe5-115" target="cK0v4nelZO162dnOuFe5-138">
          <mxGeometry relative="1" as="geometry">
            <mxPoint x="54.75" y="978.75" as="targetPoint" />
            <Array as="points">
              <mxPoint x="20" y="497" />
              <mxPoint x="20" y="958" />
            </Array>
          </mxGeometry>
        </mxCell>
        <mxCell id="cK0v4nelZO162dnOuFe5-115" value="contador_parentesis!=0 &amp;amp;&amp;amp; *orig!=&#39;\0&#39;" style="rhombus;whiteSpace=wrap;html=1;" vertex="1" parent="1">
          <mxGeometry x="-340.5" y="463" width="283" height="68" as="geometry" />
        </mxCell>
        <mxCell id="cK0v4nelZO162dnOuFe5-116" style="edgeStyle=none;curved=1;rounded=0;orthogonalLoop=1;jettySize=auto;html=1;entryX=0.5;entryY=0;entryDx=0;entryDy=0;fontSize=12;startSize=8;endSize=8;" edge="1" parent="1" source="cK0v4nelZO162dnOuFe5-118" target="cK0v4nelZO162dnOuFe5-125">
          <mxGeometry relative="1" as="geometry" />
        </mxCell>
        <mxCell id="cK0v4nelZO162dnOuFe5-117" style="edgeStyle=orthogonalEdgeStyle;shape=connector;rounded=0;orthogonalLoop=1;jettySize=auto;html=1;entryX=0;entryY=0.5;entryDx=0;entryDy=0;strokeColor=default;align=center;verticalAlign=middle;fontFamily=Helvetica;fontSize=12;fontColor=default;labelBackgroundColor=default;startSize=8;endArrow=classic;endSize=8;" edge="1" parent="1" source="cK0v4nelZO162dnOuFe5-118" target="cK0v4nelZO162dnOuFe5-123">
          <mxGeometry relative="1" as="geometry" />
        </mxCell>
        <mxCell id="cK0v4nelZO162dnOuFe5-118" value="*orig==&#39;)&#39;" style="rhombus;whiteSpace=wrap;html=1;" vertex="1" parent="1">
          <mxGeometry x="-395.25" y="656" width="80" height="80" as="geometry" />
        </mxCell>
        <mxCell id="cK0v4nelZO162dnOuFe5-119" style="edgeStyle=orthogonalEdgeStyle;rounded=0;orthogonalLoop=1;jettySize=auto;html=1;entryX=0.5;entryY=0;entryDx=0;entryDy=0;fontSize=12;startSize=8;endSize=8;exitX=0.5;exitY=1;exitDx=0;exitDy=0;" edge="1" parent="1" source="cK0v4nelZO162dnOuFe5-120" target="cK0v4nelZO162dnOuFe5-118">
          <mxGeometry relative="1" as="geometry">
            <Array as="points">
              <mxPoint x="-199" y="634" />
              <mxPoint x="-355" y="634" />
            </Array>
          </mxGeometry>
        </mxCell>
        <mxCell id="cK0v4nelZO162dnOuFe5-120" value="avanzar(orig, dir);" style="rounded=0;whiteSpace=wrap;html=1;" vertex="1" parent="1">
          <mxGeometry x="-260.75" y="572" width="123.5" height="32" as="geometry" />
        </mxCell>
        <mxCell id="cK0v4nelZO162dnOuFe5-121" style="edgeStyle=orthogonalEdgeStyle;rounded=0;orthogonalLoop=1;jettySize=auto;html=1;entryX=0.5;entryY=0;entryDx=0;entryDy=0;fontSize=12;startSize=8;endSize=8;" edge="1" parent="1" source="cK0v4nelZO162dnOuFe5-123" target="cK0v4nelZO162dnOuFe5-127">
          <mxGeometry relative="1" as="geometry" />
        </mxCell>
        <mxCell id="cK0v4nelZO162dnOuFe5-122" style="edgeStyle=orthogonalEdgeStyle;shape=connector;rounded=0;orthogonalLoop=1;jettySize=auto;html=1;entryX=1;entryY=0.5;entryDx=0;entryDy=0;strokeColor=default;align=center;verticalAlign=middle;fontFamily=Helvetica;fontSize=12;fontColor=default;labelBackgroundColor=default;startSize=8;endArrow=classic;endSize=8;" edge="1" parent="1" source="cK0v4nelZO162dnOuFe5-123" target="cK0v4nelZO162dnOuFe5-131">
          <mxGeometry relative="1" as="geometry">
            <Array as="points">
              <mxPoint x="-26" y="696" />
              <mxPoint x="-26" y="839" />
            </Array>
          </mxGeometry>
        </mxCell>
        <mxCell id="cK0v4nelZO162dnOuFe5-123" value="*orig==&#39;(&#39;" style="rhombus;whiteSpace=wrap;html=1;" vertex="1" parent="1">
          <mxGeometry x="-159.25" y="656" width="80" height="80" as="geometry" />
        </mxCell>
        <mxCell id="cK0v4nelZO162dnOuFe5-124" style="edgeStyle=orthogonalEdgeStyle;shape=connector;rounded=0;orthogonalLoop=1;jettySize=auto;html=1;entryX=0;entryY=0.5;entryDx=0;entryDy=0;strokeColor=default;align=center;verticalAlign=middle;fontFamily=Helvetica;fontSize=12;fontColor=default;labelBackgroundColor=default;startSize=8;endArrow=classic;endSize=8;exitX=0.5;exitY=1;exitDx=0;exitDy=0;" edge="1" parent="1" source="cK0v4nelZO162dnOuFe5-125" target="cK0v4nelZO162dnOuFe5-131">
          <mxGeometry relative="1" as="geometry" />
        </mxCell>
        <mxCell id="cK0v4nelZO162dnOuFe5-125" value="++contador_parentesis;" style="rounded=0;whiteSpace=wrap;html=1;" vertex="1" parent="1">
          <mxGeometry x="-429" y="771" width="147.5" height="32" as="geometry" />
        </mxCell>
        <mxCell id="cK0v4nelZO162dnOuFe5-126" style="edgeStyle=orthogonalEdgeStyle;shape=connector;rounded=0;orthogonalLoop=1;jettySize=auto;html=1;entryX=0.5;entryY=0;entryDx=0;entryDy=0;strokeColor=default;align=center;verticalAlign=middle;fontFamily=Helvetica;fontSize=12;fontColor=default;labelBackgroundColor=default;startSize=8;endArrow=classic;endSize=8;" edge="1" parent="1" source="cK0v4nelZO162dnOuFe5-127" target="cK0v4nelZO162dnOuFe5-131">
          <mxGeometry relative="1" as="geometry" />
        </mxCell>
        <mxCell id="cK0v4nelZO162dnOuFe5-127" value="--contador_parentesis;" style="rounded=0;whiteSpace=wrap;html=1;" vertex="1" parent="1">
          <mxGeometry x="-193" y="766" width="147.5" height="32" as="geometry" />
        </mxCell>
        <mxCell id="cK0v4nelZO162dnOuFe5-128" style="edgeStyle=orthogonalEdgeStyle;shape=connector;rounded=0;orthogonalLoop=1;jettySize=auto;html=1;entryX=0.5;entryY=0;entryDx=0;entryDy=0;strokeColor=default;align=center;verticalAlign=middle;fontFamily=Helvetica;fontSize=12;fontColor=default;labelBackgroundColor=default;startSize=8;endArrow=classic;endSize=8;" edge="1" parent="1" source="cK0v4nelZO162dnOuFe5-129" target="cK0v4nelZO162dnOuFe5-115">
          <mxGeometry relative="1" as="geometry" />
        </mxCell>
        <mxCell id="cK0v4nelZO162dnOuFe5-129" value="" style="ellipse;whiteSpace=wrap;html=1;aspect=fixed;" vertex="1" parent="1">
          <mxGeometry x="-208.5" y="419" width="19" height="19" as="geometry" />
        </mxCell>
        <mxCell id="cK0v4nelZO162dnOuFe5-130" style="edgeStyle=orthogonalEdgeStyle;shape=connector;rounded=0;orthogonalLoop=1;jettySize=auto;html=1;entryX=0;entryY=0.5;entryDx=0;entryDy=0;strokeColor=default;align=center;verticalAlign=middle;fontFamily=Helvetica;fontSize=12;fontColor=default;labelBackgroundColor=default;startSize=8;endArrow=classic;endSize=8;" edge="1" parent="1" source="cK0v4nelZO162dnOuFe5-131" target="cK0v4nelZO162dnOuFe5-129">
          <mxGeometry relative="1" as="geometry">
            <Array as="points">
              <mxPoint x="-214" y="880" />
              <mxPoint x="-453" y="880" />
              <mxPoint x="-453" y="429" />
              <mxPoint x="-209" y="429" />
            </Array>
          </mxGeometry>
        </mxCell>
        <mxCell id="cK0v4nelZO162dnOuFe5-131" value="" style="ellipse;whiteSpace=wrap;html=1;aspect=fixed;" vertex="1" parent="1">
          <mxGeometry x="-223.75" y="830" width="19" height="19" as="geometry" />
        </mxCell>
        <mxCell id="cK0v4nelZO162dnOuFe5-132" value="V" style="text;html=1;align=center;verticalAlign=middle;whiteSpace=wrap;rounded=0;fontFamily=Helvetica;fontSize=12;fontColor=default;labelBackgroundColor=default;" vertex="1" parent="1">
          <mxGeometry x="-401" y="732" width="60" height="30" as="geometry" />
        </mxCell>
        <mxCell id="cK0v4nelZO162dnOuFe5-133" value="F" style="text;html=1;align=center;verticalAlign=middle;whiteSpace=wrap;rounded=0;fontFamily=Helvetica;fontSize=12;fontColor=default;labelBackgroundColor=default;" vertex="1" parent="1">
          <mxGeometry x="-276.75" y="667" width="60" height="30" as="geometry" />
        </mxCell>
        <mxCell id="cK0v4nelZO162dnOuFe5-134" value="V" style="text;html=1;align=center;verticalAlign=middle;whiteSpace=wrap;rounded=0;fontFamily=Helvetica;fontSize=12;fontColor=default;labelBackgroundColor=default;" vertex="1" parent="1">
          <mxGeometry x="-164" y="736" width="60" height="30" as="geometry" />
        </mxCell>
        <mxCell id="cK0v4nelZO162dnOuFe5-135" value="F" style="text;html=1;align=center;verticalAlign=middle;whiteSpace=wrap;rounded=0;fontFamily=Helvetica;fontSize=12;fontColor=default;labelBackgroundColor=default;" vertex="1" parent="1">
          <mxGeometry x="-88" y="667" width="60" height="30" as="geometry" />
        </mxCell>
        <mxCell id="cK0v4nelZO162dnOuFe5-136" value="V" style="text;html=1;align=center;verticalAlign=middle;whiteSpace=wrap;rounded=0;fontFamily=Helvetica;fontSize=12;fontColor=default;labelBackgroundColor=default;" vertex="1" parent="1">
          <mxGeometry x="-244.25" y="531" width="60" height="30" as="geometry" />
        </mxCell>
        <mxCell id="cK0v4nelZO162dnOuFe5-137" style="edgeStyle=orthogonalEdgeStyle;shape=connector;rounded=0;orthogonalLoop=1;jettySize=auto;html=1;strokeColor=default;align=center;verticalAlign=middle;fontFamily=Helvetica;fontSize=12;fontColor=default;labelBackgroundColor=default;startSize=8;endArrow=classic;endSize=8;entryX=0.5;entryY=0;entryDx=0;entryDy=0;" edge="1" parent="1" source="cK0v4nelZO162dnOuFe5-138" target="cK0v4nelZO162dnOuFe5-144">
          <mxGeometry relative="1" as="geometry">
            <mxPoint x="-214.255" y="1064.826086956522" as="targetPoint" />
          </mxGeometry>
        </mxCell>
        <mxCell id="cK0v4nelZO162dnOuFe5-138" value="&lt;div&gt;pila_d_insertar(pila_salto, orig+dir);&lt;/div&gt;&lt;div&gt;voltear(dir);&lt;/div&gt;&lt;div&gt;avanzar(orig, dir);&lt;br&gt;&lt;/div&gt;" style="rounded=0;whiteSpace=wrap;html=1;fontFamily=Helvetica;fontSize=12;fontColor=default;labelBackgroundColor=default;" vertex="1" parent="1">
          <mxGeometry x="-319.38" y="928" width="210.25" height="60" as="geometry" />
        </mxCell>
        <mxCell id="cK0v4nelZO162dnOuFe5-139" value="F" style="text;html=1;align=center;verticalAlign=middle;whiteSpace=wrap;rounded=0;fontFamily=Helvetica;fontSize=12;fontColor=default;labelBackgroundColor=default;" vertex="1" parent="1">
          <mxGeometry x="-70" y="468" width="60" height="30" as="geometry" />
        </mxCell>
        <mxCell id="cK0v4nelZO162dnOuFe5-140" value="V" style="text;html=1;align=center;verticalAlign=middle;whiteSpace=wrap;rounded=0;fontFamily=Helvetica;fontSize=12;fontColor=default;labelBackgroundColor=default;" vertex="1" parent="1">
          <mxGeometry x="-244.25" y="329" width="60" height="30" as="geometry" />
        </mxCell>
        <mxCell id="cK0v4nelZO162dnOuFe5-141" value="F" style="text;html=1;align=center;verticalAlign=middle;whiteSpace=wrap;rounded=0;fontFamily=Helvetica;fontSize=12;fontColor=default;labelBackgroundColor=default;" vertex="1" parent="1">
          <mxGeometry x="-325" y="280" width="60" height="30" as="geometry" />
        </mxCell>
        <mxCell id="cK0v4nelZO162dnOuFe5-152" style="edgeStyle=orthogonalEdgeStyle;shape=connector;rounded=0;orthogonalLoop=1;jettySize=auto;html=1;entryX=0;entryY=0.5;entryDx=0;entryDy=0;strokeColor=default;align=center;verticalAlign=middle;fontFamily=Helvetica;fontSize=12;fontColor=default;labelBackgroundColor=default;startSize=8;endArrow=classic;endSize=8;" edge="1" parent="1" source="cK0v4nelZO162dnOuFe5-143" target="cK0v4nelZO162dnOuFe5-144">
          <mxGeometry relative="1" as="geometry">
            <Array as="points">
              <mxPoint x="-480" y="1033" />
              <mxPoint x="-224" y="1033" />
            </Array>
          </mxGeometry>
        </mxCell>
        <mxCell id="cK0v4nelZO162dnOuFe5-143" value="&lt;div&gt;voltear(dir);&lt;/div&gt;&lt;div&gt;orig=pila_d_pop(pila_salto)&lt;br&gt;&lt;/div&gt;" style="rounded=0;whiteSpace=wrap;html=1;fontFamily=Helvetica;fontSize=12;fontColor=default;labelBackgroundColor=default;" vertex="1" parent="1">
          <mxGeometry x="-574" y="290.5" width="189" height="44" as="geometry" />
        </mxCell>
        <mxCell id="cK0v4nelZO162dnOuFe5-154" style="edgeStyle=orthogonalEdgeStyle;shape=connector;rounded=0;orthogonalLoop=1;jettySize=auto;html=1;entryX=0.5;entryY=0;entryDx=0;entryDy=0;strokeColor=default;align=center;verticalAlign=middle;fontFamily=Helvetica;fontSize=12;fontColor=default;labelBackgroundColor=default;startSize=8;endArrow=classic;endSize=8;" edge="1" parent="1" source="cK0v4nelZO162dnOuFe5-144" target="cK0v4nelZO162dnOuFe5-149">
          <mxGeometry relative="1" as="geometry">
            <Array as="points">
              <mxPoint x="-214" y="1078" />
              <mxPoint x="-386" y="1078" />
            </Array>
          </mxGeometry>
        </mxCell>
        <mxCell id="cK0v4nelZO162dnOuFe5-144" value="" style="ellipse;whiteSpace=wrap;html=1;aspect=fixed;" vertex="1" parent="1">
          <mxGeometry x="-224" y="1024" width="19" height="19" as="geometry" />
        </mxCell>
        <mxCell id="cK0v4nelZO162dnOuFe5-145" value="V" style="text;html=1;align=center;verticalAlign=middle;whiteSpace=wrap;rounded=0;fontFamily=Helvetica;fontSize=12;fontColor=default;labelBackgroundColor=default;" vertex="1" parent="1">
          <mxGeometry x="-241" y="236" width="62" height="30" as="geometry" />
        </mxCell>
        <mxCell id="cK0v4nelZO162dnOuFe5-146" value="F" style="text;html=1;align=center;verticalAlign=middle;whiteSpace=wrap;rounded=0;fontFamily=Helvetica;fontSize=12;fontColor=default;labelBackgroundColor=default;" vertex="1" parent="1">
          <mxGeometry x="-146" y="184" width="60" height="30" as="geometry" />
        </mxCell>
        <mxCell id="cK0v4nelZO162dnOuFe5-156" style="edgeStyle=orthogonalEdgeStyle;shape=connector;rounded=0;orthogonalLoop=1;jettySize=auto;html=1;entryX=1;entryY=0.5;entryDx=0;entryDy=0;strokeColor=default;align=center;verticalAlign=middle;fontFamily=Helvetica;fontSize=12;fontColor=default;labelBackgroundColor=default;startSize=8;endArrow=classic;endSize=8;" edge="1" parent="1" source="cK0v4nelZO162dnOuFe5-147" target="cK0v4nelZO162dnOuFe5-149">
          <mxGeometry relative="1" as="geometry">
            <Array as="points">
              <mxPoint x="73" y="1140" />
            </Array>
          </mxGeometry>
        </mxCell>
        <mxCell id="cK0v4nelZO162dnOuFe5-147" value="&lt;div&gt;*dest=*orig;&lt;/div&gt;&lt;div&gt;++dest;&lt;/div&gt;&lt;div&gt;avanzar(orig, dir);&lt;br&gt;&lt;/div&gt;" style="rounded=0;whiteSpace=wrap;html=1;fontFamily=Helvetica;fontSize=12;fontColor=default;labelBackgroundColor=default;" vertex="1" parent="1">
          <mxGeometry x="9" y="186.5" width="120" height="60" as="geometry" />
        </mxCell>
        <mxCell id="cK0v4nelZO162dnOuFe5-157" style="edgeStyle=orthogonalEdgeStyle;shape=connector;rounded=0;orthogonalLoop=1;jettySize=auto;html=1;strokeColor=default;align=center;verticalAlign=middle;fontFamily=Helvetica;fontSize=12;fontColor=default;labelBackgroundColor=default;startSize=8;endArrow=classic;endSize=8;entryX=0;entryY=0.5;entryDx=0;entryDy=0;" edge="1" parent="1" source="cK0v4nelZO162dnOuFe5-149" target="cK0v4nelZO162dnOuFe5-6">
          <mxGeometry relative="1" as="geometry">
            <mxPoint x="-818" y="58" as="targetPoint" />
            <Array as="points">
              <mxPoint x="-386" y="1232" />
              <mxPoint x="-1134" y="1232" />
              <mxPoint x="-1134" y="67" />
              <mxPoint x="-749" y="67" />
            </Array>
          </mxGeometry>
        </mxCell>
        <mxCell id="cK0v4nelZO162dnOuFe5-149" value="" style="ellipse;whiteSpace=wrap;html=1;aspect=fixed;" vertex="1" parent="1">
          <mxGeometry x="-396" y="1130" width="19" height="19" as="geometry" />
        </mxCell>
        <mxCell id="cK0v4nelZO162dnOuFe5-159" value="F" style="text;html=1;align=center;verticalAlign=middle;whiteSpace=wrap;rounded=0;fontFamily=Helvetica;fontSize=12;fontColor=default;labelBackgroundColor=default;" vertex="1" parent="1">
          <mxGeometry x="-689.25" y="101" width="60" height="30" as="geometry" />
        </mxCell>
        <mxCell id="cK0v4nelZO162dnOuFe5-162" style="edgeStyle=orthogonalEdgeStyle;shape=connector;rounded=0;orthogonalLoop=1;jettySize=auto;html=1;strokeColor=default;align=center;verticalAlign=middle;fontFamily=Helvetica;fontSize=12;fontColor=default;labelBackgroundColor=default;startSize=8;endArrow=classic;endSize=8;entryX=0;entryY=0.5;entryDx=0;entryDy=0;" edge="1" parent="1" source="cK0v4nelZO162dnOuFe5-160" target="cK0v4nelZO162dnOuFe5-161">
          <mxGeometry relative="1" as="geometry">
            <mxPoint x="-390.19047619047615" y="129" as="targetPoint" />
          </mxGeometry>
        </mxCell>
        <mxCell id="cK0v4nelZO162dnOuFe5-160" value="pila_d_destruir(pila_salto);" style="rounded=0;whiteSpace=wrap;html=1;fontFamily=Helvetica;fontSize=12;fontColor=default;labelBackgroundColor=default;" vertex="1" parent="1">
          <mxGeometry x="-627.5" y="113.5" width="161" height="31" as="geometry" />
        </mxCell>
        <mxCell id="cK0v4nelZO162dnOuFe5-161" value="Fin" style="ellipse;whiteSpace=wrap;html=1;fontFamily=Helvetica;fontSize=12;fontColor=default;labelBackgroundColor=default;" vertex="1" parent="1">
          <mxGeometry x="-401" y="103.5" width="79" height="51" as="geometry" />
        </mxCell>
        <mxCell id="cK0v4nelZO162dnOuFe5-163" value="Inicio" style="ellipse;whiteSpace=wrap;html=1;fontFamily=Helvetica;fontSize=12;fontColor=default;labelBackgroundColor=default;" vertex="1" parent="1">
          <mxGeometry x="-1349" y="364" width="92" height="49" as="geometry" />
        </mxCell>
        <mxCell id="cK0v4nelZO162dnOuFe5-169" style="edgeStyle=orthogonalEdgeStyle;shape=connector;rounded=0;orthogonalLoop=1;jettySize=auto;html=1;strokeColor=default;align=center;verticalAlign=middle;fontFamily=Helvetica;fontSize=12;fontColor=default;labelBackgroundColor=default;startSize=8;endArrow=classic;endSize=8;" edge="1" parent="1">
          <mxGeometry relative="1" as="geometry">
            <mxPoint x="-1183.8471428571427" y="496" as="targetPoint" />
            <mxPoint x="-1219.9995238095237" y="496.02857142857135" as="sourcePoint" />
          </mxGeometry>
        </mxCell>
        <mxCell id="cK0v4nelZO162dnOuFe5-164" value="&lt;span&gt;&quot;Desencriptacion de strings alrevezados con parentesis&quot;&lt;/span&gt;" style="shape=parallelogram;perimeter=parallelogramPerimeter;whiteSpace=wrap;html=1;fixedSize=1;fontFamily=Helvetica;fontSize=12;fontColor=default;labelBackgroundColor=none;" vertex="1" parent="1">
          <mxGeometry x="-1411" y="443" width="215" height="57" as="geometry" />
        </mxCell>
        <mxCell id="cK0v4nelZO162dnOuFe5-170" style="edgeStyle=orthogonalEdgeStyle;shape=connector;rounded=0;orthogonalLoop=1;jettySize=auto;html=1;entryX=0.5;entryY=0;entryDx=0;entryDy=0;strokeColor=default;align=center;verticalAlign=middle;fontFamily=Helvetica;fontSize=12;fontColor=default;labelBackgroundColor=default;startSize=8;endArrow=classic;endSize=8;" edge="1" parent="1" source="cK0v4nelZO162dnOuFe5-163" target="cK0v4nelZO162dnOuFe5-164">
          <mxGeometry relative="1" as="geometry" />
        </mxCell>
        <mxCell id="cK0v4nelZO162dnOuFe5-174" style="edgeStyle=orthogonalEdgeStyle;shape=connector;rounded=0;orthogonalLoop=1;jettySize=auto;html=1;entryX=0.5;entryY=0;entryDx=0;entryDy=0;strokeColor=default;align=center;verticalAlign=middle;fontFamily=Helvetica;fontSize=12;fontColor=default;labelBackgroundColor=default;startSize=8;endArrow=classic;endSize=8;" edge="1" parent="1" source="cK0v4nelZO162dnOuFe5-171" target="cK0v4nelZO162dnOuFe5-172">
          <mxGeometry relative="1" as="geometry" />
        </mxCell>
        <mxCell id="cK0v4nelZO162dnOuFe5-171" value="&lt;span&gt;entrada&lt;br&gt;&lt;/span&gt;" style="shape=parallelogram;perimeter=parallelogramPerimeter;whiteSpace=wrap;html=1;fixedSize=1;fontFamily=Helvetica;fontSize=12;fontColor=default;labelBackgroundColor=none;" vertex="1" parent="1">
          <mxGeometry x="-1365" y="527" width="115" height="34.5" as="geometry" />
        </mxCell>
        <mxCell id="cK0v4nelZO162dnOuFe5-172" value="desencriptar(entrada, salida)" style="shape=step;perimeter=stepPerimeter;whiteSpace=wrap;html=1;fixedSize=1;fontFamily=Helvetica;fontSize=12;fontColor=default;labelBackgroundColor=default;" vertex="1" parent="1">
          <mxGeometry x="-1413.5" y="591.5" width="212" height="45" as="geometry" />
        </mxCell>
        <mxCell id="cK0v4nelZO162dnOuFe5-175" style="edgeStyle=orthogonalEdgeStyle;shape=connector;rounded=0;orthogonalLoop=1;jettySize=auto;html=1;entryX=0.539;entryY=0.037;entryDx=0;entryDy=0;entryPerimeter=0;strokeColor=default;align=center;verticalAlign=middle;fontFamily=Helvetica;fontSize=12;fontColor=default;labelBackgroundColor=default;startSize=8;endArrow=classic;endSize=8;" edge="1" parent="1" source="cK0v4nelZO162dnOuFe5-164" target="cK0v4nelZO162dnOuFe5-171">
          <mxGeometry relative="1" as="geometry" />
        </mxCell>
        <mxCell id="cK0v4nelZO162dnOuFe5-177" style="edgeStyle=orthogonalEdgeStyle;shape=connector;rounded=0;orthogonalLoop=1;jettySize=auto;html=1;strokeColor=default;align=center;verticalAlign=middle;fontFamily=Helvetica;fontSize=12;fontColor=default;labelBackgroundColor=default;startSize=8;endArrow=classic;endSize=8;" edge="1" parent="1">
          <mxGeometry relative="1" as="geometry">
            <mxPoint x="-1348.8471428571427" y="530" as="targetPoint" />
            <mxPoint x="-1384.9995238095237" y="530.0285714285714" as="sourcePoint" />
          </mxGeometry>
        </mxCell>
        <mxCell id="cK0v4nelZO162dnOuFe5-178" value="salida" style="shape=parallelogram;perimeter=parallelogramPerimeter;whiteSpace=wrap;html=1;fixedSize=1;fontFamily=Helvetica;fontSize=12;fontColor=default;labelBackgroundColor=none;" vertex="1" parent="1">
          <mxGeometry x="-1372" y="667.75" width="115" height="34.5" as="geometry" />
        </mxCell>
        <mxCell id="cK0v4nelZO162dnOuFe5-179" style="edgeStyle=orthogonalEdgeStyle;shape=connector;rounded=0;orthogonalLoop=1;jettySize=auto;html=1;entryX=0.558;entryY=0.073;entryDx=0;entryDy=0;entryPerimeter=0;strokeColor=default;align=center;verticalAlign=middle;fontFamily=Helvetica;fontSize=12;fontColor=default;labelBackgroundColor=default;startSize=8;endArrow=classic;endSize=8;" edge="1" parent="1" source="cK0v4nelZO162dnOuFe5-172" target="cK0v4nelZO162dnOuFe5-178">
          <mxGeometry relative="1" as="geometry" />
        </mxCell>
        <mxCell id="cK0v4nelZO162dnOuFe5-180" style="edgeStyle=orthogonalEdgeStyle;shape=connector;rounded=0;orthogonalLoop=1;jettySize=auto;html=1;strokeColor=default;align=center;verticalAlign=middle;fontFamily=Helvetica;fontSize=12;fontColor=default;labelBackgroundColor=default;startSize=8;endArrow=classic;endSize=8;" edge="1" parent="1">
          <mxGeometry relative="1" as="geometry">
            <mxPoint x="-1238.8471428571427" y="700" as="targetPoint" />
            <mxPoint x="-1274.9995238095237" y="700.0285714285714" as="sourcePoint" />
          </mxGeometry>
        </mxCell>
        <mxCell id="cK0v4nelZO162dnOuFe5-184" style="edgeStyle=orthogonalEdgeStyle;shape=connector;rounded=0;orthogonalLoop=1;jettySize=auto;html=1;strokeColor=default;align=center;verticalAlign=middle;fontFamily=Helvetica;fontSize=12;fontColor=default;labelBackgroundColor=default;startSize=8;endArrow=classic;endSize=8;entryX=0.5;entryY=0;entryDx=0;entryDy=0;" edge="1" parent="1" source="cK0v4nelZO162dnOuFe5-181" target="cK0v4nelZO162dnOuFe5-185">
          <mxGeometry relative="1" as="geometry">
            <mxPoint x="-1318.5" y="822.2857142857142" as="targetPoint" />
          </mxGeometry>
        </mxCell>
        <mxCell id="cK0v4nelZO162dnOuFe5-181" value="***Fin del programa***" style="shape=parallelogram;perimeter=parallelogramPerimeter;whiteSpace=wrap;html=1;fixedSize=1;fontFamily=Helvetica;fontSize=12;fontColor=default;labelBackgroundColor=none;" vertex="1" parent="1">
          <mxGeometry x="-1426" y="729" width="215" height="57" as="geometry" />
        </mxCell>
        <mxCell id="cK0v4nelZO162dnOuFe5-182" style="edgeStyle=orthogonalEdgeStyle;shape=connector;rounded=0;orthogonalLoop=1;jettySize=auto;html=1;entryX=0.518;entryY=0.053;entryDx=0;entryDy=0;entryPerimeter=0;strokeColor=default;align=center;verticalAlign=middle;fontFamily=Helvetica;fontSize=12;fontColor=default;labelBackgroundColor=default;startSize=8;endArrow=classic;endSize=8;" edge="1" parent="1" source="cK0v4nelZO162dnOuFe5-178" target="cK0v4nelZO162dnOuFe5-181">
          <mxGeometry relative="1" as="geometry" />
        </mxCell>
        <mxCell id="cK0v4nelZO162dnOuFe5-183" style="edgeStyle=orthogonalEdgeStyle;shape=connector;rounded=0;orthogonalLoop=1;jettySize=auto;html=1;strokeColor=default;align=center;verticalAlign=middle;fontFamily=Helvetica;fontSize=12;fontColor=default;labelBackgroundColor=default;startSize=8;endArrow=classic;endSize=8;" edge="1" parent="1">
          <mxGeometry relative="1" as="geometry">
            <mxPoint x="-1191.8471428571427" y="783" as="targetPoint" />
            <mxPoint x="-1227.9995238095237" y="783.0285714285714" as="sourcePoint" />
          </mxGeometry>
        </mxCell>
        <mxCell id="cK0v4nelZO162dnOuFe5-185" value="FIN" style="ellipse;whiteSpace=wrap;html=1;fontFamily=Helvetica;fontSize=12;fontColor=default;labelBackgroundColor=default;" vertex="1" parent="1">
          <mxGeometry x="-1351.5" y="817" width="66" height="41" as="geometry" />
        </mxCell>
      </root>
    </mxGraphModel>
  </diagram>
</mxfile>
